<svg width="400" height="400" viewBox="0 0 400 400" fill="none" xmlns="http://www.w3.org/2000/svg">
<rect width="400" height="400" rx="196" fill="#5344BA"/>
<path d="M307.452 319.212C307.679 319.879 307.413 320.615 306.813 320.985C294.839 328.373 286.31 334.258 269.129 338.639C251.461 342.88 233.457 345 215.118 345C188.728 345 166.251 341.422 147.688 334.266C129.349 326.846 115.483 316.642 106.09 303.656C96.6966 290.404 92 275.298 92 258.336C92 244.29 95.1311 231.701 101.393 220.57C107.879 209.439 117.049 200.825 128.902 194.73C119.956 188.899 113.135 181.346 108.438 172.07C103.965 162.529 101.729 152.06 101.729 140.664C101.729 125.027 105.978 110.716 114.477 97.7295C123.199 84.4781 136.394 73.877 154.062 65.9262C171.954 57.9754 193.872 54 219.815 54C235.694 54 250.132 54.5924 266.446 59.168C281.009 63.2528 285.344 124.995 286.107 138.193C286.172 139.331 284.994 140.069 283.959 139.592C263.688 130.236 243.313 125.557 222.834 125.557C208.968 125.557 198.568 127.413 191.635 131.123C184.926 134.833 181.571 140.001 181.571 146.627C181.571 152.193 183.248 156.433 186.603 159.348C189.958 162.264 195.549 163.721 203.377 163.721H270.641C271.474 163.721 272.149 164.396 272.149 165.229V231.386C272.149 232.219 271.474 232.893 270.641 232.893H198.009C189.287 232.893 182.689 234.616 178.216 238.061C173.967 241.242 171.842 245.88 171.842 251.975C171.842 266.287 187.274 273.443 218.138 273.443C229.991 273.443 242.515 271.587 255.71 267.877C268.414 264.114 273.819 259.281 283.087 253.38C283.905 252.86 284.99 253.247 285.303 254.164L307.452 319.212Z" fill="white"/>
</svg>
