<svg width="512" height="512" viewBox="0 0 512 512" fill="none" xmlns="http://www.w3.org/2000/svg">
<path d="M256 25C193.875 25 144.805 44.114 110.69 82.02C77.9221 118.427 58.7651 173.19 57.2861 247H111.196C111.313 237.258 111.668 226.66 112.616 215.63C112.396 215.392 112.172 215.163 111.956 214.916C104.226 206.078 101.053 193.059 103.048 175.211C103.888 164.577 109.38 155.312 117.94 151.559C121.093 150.176 124.362 149.429 127.741 149.16C129.044 146.053 130.448 142.99 131.951 139.975C132.918 138.047 133.935 136.144 134.999 134.268V103H160.104C181.958 83.704 213.081 71 256 71C298.919 71 330.042 83.704 351.895 103H377V134.268C378.065 136.144 379.081 138.047 380.049 139.975C381.552 142.99 382.956 146.053 384.258 149.16C387.637 149.43 390.906 150.176 394.058 151.559C402.618 155.312 408.112 164.577 408.951 175.211C410.946 193.059 407.773 206.078 400.043 214.916C399.827 215.163 399.603 215.392 399.383 215.631C400.331 226.66 400.686 237.258 400.803 247H454.713C453.234 173.19 434.077 118.427 401.311 82.02C367.195 44.114 318.125 25 256 25ZM153 121V135H359V121H153ZM153 153V215H167V190.104C166.642 188.824 166.995 187.962 167 187.471V153H153ZM185 153V160.38C188.425 157.38 192.44 154.716 197.074 153H185ZM217.871 153C219.764 153.826 221.498 154.888 222.984 156.174C226.822 159.495 228.884 163.717 230.114 167.611C231.454 171.861 231.998 176.007 232.314 179.555L232.537 179.225L237.564 171.762L252.492 181.818L247.462 189.281L236.23 205.953C241.815 209.145 248.817 211 256 211C263.183 211 270.185 209.145 275.77 205.953L264.537 189.281L259.507 181.818L274.436 171.762L279.463 179.225L279.686 179.555C280.002 176.007 280.546 171.862 281.886 167.611C283.116 163.717 285.178 159.495 289.016 156.174C290.502 154.888 292.236 153.826 294.129 153H217.87H217.871ZM314.926 153C319.56 154.716 323.575 157.38 327 160.38V153H314.926ZM345 153V187.47C345.005 187.962 345.358 188.823 345 190.104V215H359V153H345ZM131.305 167.203C128.487 167.155 126.398 167.502 125.168 168.041C122.708 169.119 121.469 170.118 120.973 176.68L120.961 176.85L120.941 177.02C119.203 192.248 121.555 198.554 125.504 203.068C127.612 205.478 130.913 207.626 135 209.795V167.508C133.693 167.358 132.399 167.222 131.305 167.203ZM380.695 167.203C379.601 167.222 378.307 167.359 377 167.508V209.795C381.087 207.625 384.388 205.479 386.496 203.068C390.445 198.554 392.796 192.248 391.059 177.02L391.039 176.85L391.027 176.68C390.531 170.118 389.291 169.12 386.832 168.041C385.602 167.501 383.513 167.155 380.695 167.203ZM208.037 168.998C202.435 169.021 196.939 173.208 192.439 178.627L213.919 178.85C213.672 176.685 213.429 174.55 212.949 173.027C212.353 171.137 211.669 170.183 211.207 169.783C210.745 169.383 210.347 168.989 208.037 168.998ZM303.963 168.998C301.653 168.988 301.255 169.383 300.793 169.783C300.331 170.183 299.647 171.137 299.051 173.027C298.571 174.549 298.328 176.685 298.081 178.85L319.561 178.627C315.061 173.207 309.565 169.021 303.963 168.998ZM185 196.548V233H155L197.4 264.8C232.064 290.798 284.103 287.673 314.6 264.8L357 233H327V196.549L291.383 196.918L299.605 209.121L294.363 214.363C284.243 224.484 270 229 256 229C242 229 227.758 224.484 217.637 214.363L212.395 209.121L220.617 196.916L185 196.548ZM192 237.002H320V254.998H192V237.002ZM134.023 239.768L121.074 304.52L126.947 375.002H247.002V339.727L238.222 330.949L210.125 344.998H167.002V284.273L178.299 272.975L134.023 239.768ZM377.977 239.768L333.7 272.975L344.997 284.273V344.998H301.874L273.776 330.949L264.997 339.727V375.002H385.052L390.925 304.52L377.975 239.768H377.977ZM318.927 283.652C283.351 306.278 231.99 308.658 193.053 283.674L184.998 291.727V327.002H205.875L241.777 309.051L256 323.275L270.223 309.051L306.125 327.002H327.002V291.727L318.928 283.652H318.927ZM128.447 392.998L136.281 487.002H215.001V434.727L187.184 392.998H128.447ZM208.814 392.998L228.816 423.002H283.184L303.186 392.998H208.814ZM324.816 392.998L296.998 434.727V487.002H375.718L383.553 392.998H324.816ZM232.998 440.998V487.002H279.002V440.998H232.998Z" fill="#418A3E"/>
</svg>
